<?xml version="1.0" encoding="UTF-8"?>
<svg version="1.1" viewBox="0 0 266 73" width="266" height="73" xmlns="http://www.w3.org/2000/svg">
  <path transform="translate(55,20) scale(0.08)" d="m0 0 7 6 26 26 3 1 2-4 29-29 7 6 25 25h4v-2h2v-2h2v-2h2v-2h2v-2h2v-2h2v-2h2v-2l8-7 10-10 7 6 126 126-2 4-130 130-7-6-25-25-4 1-30 30-7-6-26-26-4 2-30 30h-2l-7-8-124-124v-3h2v-2h2v-2h2v-2l4-4h2v-2h2v-2h2v-2h2v-2h2v-2h2v-2l8-7 51-51 5-6h2v-2h2v-2h2v-2h2v-2l8-7 2-3h2v-2l5-4 1-2h2v-2l4-4h2v-2h2v-2h2v-2l4-4h2v-2z" fill="#924B9E"/>
  <path transform="translate(70,20) scale(0.08)" d="m0 0 7 6 25 25h4v-2h2v-2h2v-2h2v-2h2v-2h2v-2h2v-2l8-7 10-10 7 6 126 126-2 4-130 130-7-6-25-25-4 1-30 30-7-6-26-26 1-4 96-96-2-4-96-96 2-1 2-4z" fill="#D8D8D8"/>
  <path transform="translate(85,20) scale(0.08)" d="m0 0 7 6 126 126-2 4-130 130-7-6-26-26 2-4 96-96-2-4-96-96 2-5h2v-2h2v-2h2v-2h2v-2h2v-2h2v-2l8-7z" fill="#5D286C"/>
  <path transform="translate(260,30) scale(0.08)" d="m0 0h23l15 4 11 6 7 5-2 4-17 17-5-1-8-4-4-1h-17l-11 4-9 7-6 8-4 10-1 5v10l4 13 8 11 9 6 7 3 5 1h13l10-3 11-7 8-10 1-2-30-1v-27h61v78h-27v-10l-15 8-16 4h-19l-16-4-12-6-10-8-10-11-6-10-5-16-1-7v-14l3-15 5-12 8-11 10-10 11-7 12-5z" fill="#5D296C"/>
  <path transform="translate(240,30) scale(0.08)" d="m0 0h29v144h-29l-1-11-9 6-11 4-5 1h-16l-12-3-11-6-8-7-8-11-5-12-1-5v-19l4-13 7-11 8-8 11-7 13-4h20l10 3 11 6 3 2zm-40 65-8 3-6 5-5 9-1 3v11l4 10 7 7 10 4h10l10-4 7-7 4-9v-12l-4-9-4-5-6-4-5-2z" fill="#924B9E"/>
  <path transform="translate(280,35) scale(0.08)" d="m0 0h21l12 4 11 7 9 9 7 12 3 10 1 20-1 1h-69l-8-1 5 8 8 6 6 2h11l12-6 5-1 22 7v4l-8 10-8 7-11 5-9 2h-17l-14-4-11-7-10-10-6-10-3-9-1-6v-15l3-12 6-11 9-10 11-7 10-4zm3 27-8 4-5 5-4 6v1h48l-2-5-5-6-10-5z" fill="#5D296C"/>
  <path transform="translate(340,35) scale(0.08)" d="m0 0h21l12 4 11 7 9 9 7 12 3 10 1 15v5l-1 1h-70l-7-1 5 8 8 6 6 2h10l10-4 4-3 7 1 20 6-1 4-8 10-7 6-12 6-10 2h-15l-12-3-10-5-10-9-6-7-5-10-3-12v-15l3-12 6-11 9-10 11-7 10-4zm4 27-8 3-5 5-4 5-1 3h48l-2-5-5-6-10-5z" fill="#5D296C"/>
  <path transform="translate(140,30) scale(0.08)" d="m0 0h15l15 3 16 8 6 5-2 4-17 17-15-6-5-1h-10l-12 3-10 7-7 8-5 13v16l4 11 4 6 5 5 5 4 8 4 4 1h17l11-4 3-2 4 1 18 18-2 4-14 8-11 4-5 1h-24l-15-4-11-6-11-9-8-9-7-12-4-12-1-5v-23l4-15 7-13 11-12 10-8 12-6 10-3z" fill="#924B9E"/>
  <path transform="translate(300,35) scale(0.08)" d="m0 0h29l1 12 9-7 12-4h18l13 4 9 6 7 7 6 10 4 14v65h-27l-1-59-4-9-2-4-4-2-9-4h-11l-10 4-7 8-3 7-1 59h-29z" fill="#5D296C"/>
  <path transform="translate(190,35) scale(0.08)" d="m0 0h27l1 58 4 11 5 6 10 4h9l8-3 5-4 4-8 1-3 1-61h29v107h-29l-1-9-8 6-10 3h-15l-13-4-10-7-8-8-6-10-4-16z" fill="#924B9E"/>
  <path transform="translate(175,35) scale(0.08)" d="m0 0h21l12 4 9 7 9 9 5 12 3 11v60h-27v-58l-2-8-5-5-6-2h-4l-5 2-4 4-2 7v58h-27v-107z" fill="#5D296C"/>
</svg>
